<?xml version="1.0" encoding="UTF-8"?>
<svg version="1.1" viewBox="0 0 2000 2000" width="1280" height="1280" xmlns="http://www.w3.org/2000/svg">
<path transform="translate(0)" d="m0 0h2e3v2e3h-2e3z" fill="#1AB9C6"/>
<path transform="translate(1022,576)" d="m0 0h138l16 1 3 3v8l-2 2-13 1-32 1-1 35v283l-1 143 163-1 8-3 4-5 3-10 12-89 4-2h12l3 1 1 3v26l1 57 3 32 3 20-5 1-28-4-27-2-270-1-1-1v-12l3-2 38-1 6-2v-463l-3-3-41-1-3-3v-9l1-2z" fill="#FAFFFF"/>
<path transform="translate(578,778)" d="m0 0h174l10 6 13 10 15 12 16 12 14 11v5l-8 8-11 9-7 7-8 7-15 13-15 14-8 7-14 12-3 3h-2l-1 3-8 7-14 13-11 9-7 7-11 9-8 8-3 2h-6l-12-11-8-7-14-13-8-7-10-9-8-7-12-11-8-7-11-10-8-7-11-10-8-7-14-12-10-9-5-5-5-6v-5l10-9 13-10 10-8 8-6 13-10 8-6z" fill="#FAFFFF"/>
<path transform="translate(818,573)" d="m0 0h20l29 4 21 5 20 7 39 17 8 1 5-4 3-7 1-18 2-2h12l2 1 1 5v127l-2 2h-9l-4-2-5-21-6-18-8-16-6-9-9-11-14-11-15-9-16-7-16-5-16-3-8-1h-32l-20 3-18 6-16 8-14 10-13 11-7 8-6 7-11 16-12 23-8 20-8 26-3 14-1 1-36 1-17 4-12 4-1-1v-8l7-27 7-19 11-23 10-16 12-16 12-14 12-12 14-11 18-12 15-8 24-9 23-6 19-3z" fill="#FAFFFF"/>
<path transform="translate(967,944)" d="m0 0h13l1 1v128l-1 1h-14l-2-3-1-15-3-5v-2l-6-2-8 1-20 9-21 10-17 6-19 5-23 4-11 1h-15l-23-2-23-4-24-7-20-8-17-9-18-12-13-11-20-20-6-7v-2l2-1 22-1 17-4 9-3h5l7 8 7 9 9 10 8 8 15 11 16 9 24 8 19 3 16 1 20-2 17-3 27-9 17-9 14-10 8-8 10-13 9-17 6-17 4-17 1-8z" fill="#FAFFFF"/>
<path transform="translate(1148,1172)" d="m0 0h28l16 4 14 8 3 5-1 6-2 1h-7l-3-2v-11l-12-5-7-2h-27l-12 6-4 5-3 9v9l3 6 9 6 9 3 36 7 12 4 9 6 6 10v15l-4 10-9 10-12 6-17 3h-17l-19-4-12-6-7-6v-2h-2l-1-4 7-6 4 1 2 9 4 5 12 6 12 3h16l12-3 12-7 7-9 2-6v-7l-3-8-8-5-16-5-31-6-15-5-9-8-3-7v-15l4-9 7-8 12-6z" fill="#FAFFFF"/>
<path transform="translate(772,1171)" d="m0 0h22l3 5v7l-5-2-6-5h-53l-8 1-1 1-1 16-1 30 53-1 1-4h4v14h-4l-2-4-4-1h-48l2 54 2 1h60l7-4 5-5-1 10-2 4h-89l-1-4 4-2 1-3v-101l-5-2v-4z" fill="#FAFFFF"/>
<path transform="translate(630,1356)" d="m0 0h10l9 3 6 4 4 5 3 7v12l-3 8-8 9-9 4h-12l-9-4-6-5-4-7-1-4v-13l5-10 7-6z" fill="#FAFFFF"/>
<path transform="translate(981,1172)" d="m0 0h88l3 4-1 7-4-1-5-5-4-1h-54l-6 2-1 3v99l3 3h58l6-2 4-2 2-5 2 4v7l-3 3h-89v-4l3-2 1-8v-87l-1-8-5-4v-2z" fill="#FAFFFF"/>
<path transform="translate(706,1356)" d="m0 0h19l10 3 7 5 5 8 1 4v10l-4 10-5 6-10 5-5 1h-16l-3-2v-49z" fill="#FAFFFF"/>
<path transform="translate(614,835)" d="m0 0h45l1 3-4 20-6 37-3 16h-2l-7-14-12-29-11-24-3-8z" fill="#1AB9C6"/>
<path transform="translate(668,835)" d="m0 0h45l1 4-7 17-12 25-9 22-4 8h-2l-4-23-6-36-2-10z" fill="#1AB9C6"/>
<path transform="translate(607,1171)" d="m0 0 16 1 16 4 8 4 1 2-8-1-15-4-9-1h-13l-12 3-11 6-9 9-7 12-3 10-1 7v17l2 10 8 16 7 8 11 7 11 4 4 1h21l16-5 9-6 7-5h2l-2 5-12 9-10 4-14 3h-20l-15-4-12-6-12-11-9-14-3-9-1-5v-22l4-14 7-12 11-11 12-7 13-4z" fill="#FAFFFF"/>
<path transform="translate(1257,1172)" d="m0 0h102l2 4-1 7-4-2-5-4-3-1-33-1v100l1 7 5 5-2 1h-21l-1-3 4-5 1-10v-94h-35l-4 1-3 5h-4v-9z" fill="#FAFFFF"/>
<path transform="translate(846,1172)" d="m0 0h20l2 1-2 4-3 3v100l1 3h63l8-6h2l-1 10-1 1h-89l-2-1 2-4 3-3 1-2v-94l-2-6-5-3z" fill="#FAFFFF"/>
<path transform="translate(659,785)" d="m0 0h7l12 5 16 8 4 3-1 3-18 12-12 9-4 1-11-7-24-16 1-3 9-6 16-7z" fill="#1AB9C6"/>
<path transform="translate(1408,1172)" d="m0 0h19l1 4-3 4v100l4 5-1 3h-19l-2-3 2-3h2v-103l-5-3v-3z" fill="#FAFFFF"/>
<path transform="translate(568,835)" d="m0 0h36l4 9 9 20 9 21 8 19v2h-2v-2l-4-2-13-15-9-9v-2l-3-1-7-8-25-25-4-6z" fill="#1AB9C6"/>
<path transform="translate(515,1356)" d="m0 0 7 1 6 8 12 20 3-1 12-22 4-5 2-1h6l1 2v49l-1 1h-6l-1-1-1-34-3 4-8 15-5 7-5-1-6-9-8-14-3-2 1 2 1 13v17l-2 3-7-1v-48z" fill="#FAFFFF"/>
<path transform="translate(724,835)" d="m0 0h36l-4 7-11 12-8 7-13 13-7 8-9 9-7 8-5 4 1-8 7-17 15-33 3-9z" fill="#1AB9C6"/>
<path transform="translate(1074,1355)" d="m0 0 6 1 4 5 14 25 4-4 11-20 5-6 5-1 3 3v47l-2 3-6-1-1-4 1-31h-2l-2 5-12 21-4 1-4-4-12-21-1-1-1 33-2 2h-5l-2-6 1-43z" fill="#FAFFFF"/>
<path transform="translate(662,860)" d="m0 0h2l3 9 7 42 2 11-1 7-7 18-3 8h-4l-4-14-5-12v-10l6-36 3-20z" fill="#1AB9C6"/>
<path transform="translate(522,835)" d="m0 0h33l2 1 4 9 9 14 13 22 9 14 1 6-5-3-14-14-11-9-13-12-11-9-9-9-4-3v-2h-2z" fill="#1AB9C6"/>
<path transform="translate(778,835)" d="m0 0h28l-3 5-8 7-10 9-11 9-8 8-8 7-10 9-5 5-8 6-1-2 6-11 15-25 13-22 2-4z" fill="#1AB9C6"/>
<path transform="translate(1363,1356)" d="m0 0 7 1 8 9 10 14 7 9v2h2v-35h7l1 1v49l-1 2-7-1-11-13-12-18-3-3v32l-2 3-7-1v-49z" fill="#FAFFFF"/>
<path transform="translate(1224,1355)" d="m0 0 7 3 6 7 8 11 10 13v2h2v-34l1-1h6l1 1v49l-1 2-7-1-7-8-12-17-7-9-2-1 1 5v30l-1 1-7-1v-50z" fill="#FAFFFF"/>
<path transform="translate(1464,1356)" d="m0 0h6l5 8 13 37v6l-1 1h-5l-3-4-3-7-5-1h-14l-2 9-3 3-7-1 1-6 14-40z" fill="#FAFFFF"/>
<path transform="translate(805,1355)" d="m0 0 5 1 4 6 12 33 3 12-1 1h-6l-3-5-3-6-1-1h-18l-2 9-2 3h-7l-1-5 8-22 6-17 5-8z" fill="#FAFFFF"/>
<path transform="translate(583,866)" d="m0 0 4 2 12 12 7 8 28 28 7 8 5 6 6 17v7l-7-6-7-7-11-9-12-11-6-10-16-27-8-12z" fill="#1AB9C6"/>
<path transform="translate(741,865)" d="m0 0h2l-3 9-11 20-15 23-7 8-9 9-8 7-10 9-6 4 1-7 8-20 17-17 7-8 11-11 6-7h2l1-3 5-5 7-8z" fill="#1AB9C6"/>
<path transform="translate(747,784)" d="m0 0 5 2 9 7 4 5 1 15v12l-10-4-37-18v-3l10-7 15-8z" fill="#1AB9C6"/>
<path transform="translate(577,784)" d="m0 0 5 1 10 6 17 9v3l-20 9-20 10-7 4-1-1v-18l1-10 6-7z" fill="#1AB9C6"/>
<path transform="translate(631,1364)" d="m0 0h8l8 4 6 7v12l-3 6-9 6-8 1-10-5-4-6-1-6 2-10 5-6z" fill="#1AB9C6"/>
<path transform="translate(998,1356)" d="m0 0h30l1 1v5l-1 1-9 1h-14v12h22l1 1v6l-1 1-21 1-1 15h24l1 1v5l-1 1-10 1h-20l-2-1-1-3 1-47z" fill="#FAFFFF"/>
<path transform="translate(605,564)" d="m0 0h2l2 20 3 6 6 5 13 4 13 2-2 2-18 1-10 5-4 8-3 15-2 1-5-20-4-5-10-4-10-2 1-2 19-6 4-4 2-5z" fill="#FAFFFF"/>
<path transform="translate(713,1364)" d="m0 0h12l10 5 4 7 1 6-2 8-5 6-9 4h-11z" fill="#1AB9C6"/>
<path transform="translate(924,1356)" d="m0 0h31l1 1v6l-1 1h-24l1 11 21 1 2 1v7h-24l1 21-2 3h-5l-2-2v-49z" fill="#FAFFFF"/>
<path transform="translate(552,803)" d="m0 0h3v14l-1 11h-30v-3l14-12 12-9z" fill="#1AB9C6"/>
<path transform="translate(772,801)" d="m0 0 8 6 25 20v1h-32l-1-1z" fill="#1AB9C6"/>
<path transform="translate(705,807)" d="m0 0h2l8 19v2h-36v-3l10-8z" fill="#1AB9C6"/>
<path transform="translate(620,808)" d="m0 0 5 1 21 14 3 4-1 1h-35l1-7 5-12z" fill="#1AB9C6"/>
<path transform="translate(1170,1356)" d="m0 0h8l1 1-1 50-7 1-1-1-1-50z" fill="#FAFFFF"/>
<path transform="translate(1311,1355)" d="m0 0 7 1 1 2-1 49-1 1h-6l-2-3 1-49z" fill="#FAFFFF"/>
<path transform="translate(597,784)" d="m0 0h44l2 2-17 9-3 1h-7l-17-9z" fill="#1AB9C6"/>
<path transform="translate(684,784)" d="m0 0h44v3l-15 8-9 1-19-9z" fill="#1AB9C6"/>
<path transform="translate(609,809)" d="m0 0h2l-1 6-5 12-1 1h-27l-2-2 17-9z" fill="#1AB9C6"/>
<path transform="translate(716,810)" d="m0 0 9 3 17 8 9 5-1 2h-26l-8-15z" fill="#1AB9C6"/>
<path transform="translate(1053,1218)" d="m0 0 2 1v15l-4-1-4-4-5-1h-41l-4-2 1-2 48-1 5-3z" fill="#FAFFFF"/>
<path transform="translate(641,554)" d="m0 0 4 4 1 4 5 1v2l-5 2-3 7-4-2-5-5-2-4 4-4z" fill="#FAFFFF"/>
<path transform="translate(650,1185)" d="m0 0 5 2 4 6-2 5-4 2-7-1-2-3v-6l4-4z" fill="#FAFFFF"/>
<path transform="translate(806,1368)" d="m0 0 3 4 4 12-1 4h-11l1-7 3-12z" fill="#1AB9C6"/>
<path transform="translate(1466,1370)" d="m0 0h2l4 11 1 6-1 1h-10l-1-5 4-12z" fill="#1AB9C6"/>
<path transform="translate(559,619)" d="m0 0 5 1v8l-5 1-2-2v-6z" fill="#FAFFFF"/>
</svg>
